<svg width="356" height="443" viewBox="0 0 356 443" fill="none" xmlns="http://www.w3.org/2000/svg">
<path d="M345.133 32.3557V43.1396H334.349V53.9235H312.777V43.1396H291.205V32.3557H269.634V10.7839H237.278V0H183.35V10.7839H172.566V21.5678H129.427V32.3517H107.855V43.1356H129.427V53.9195H172.566V64.7034H183.35V75.4873H161.779V86.2712H140.207V97.0551H118.635V118.627H107.851V129.411H97.0671V140.195H86.2832V161.767H75.4993V183.338H86.2832V194.122H97.0671V183.338H107.851V172.554H129.423V183.338H140.207V172.554H172.562V183.338H150.991V194.122H129.419V183.338H118.635V194.122H107.851V204.906H86.2792V194.122H75.4953V226.478H43.1396V237.262H32.3557V248.046H21.5718V258.83H10.7879V280.401H0V355.901H10.7839V377.473H21.5678V345.117H32.3517V301.977H43.1356V291.193H53.9195V280.409H97.0591V291.193H86.2752V323.549H75.4913V334.333H86.2752V355.905H97.0591V366.689H107.843V377.473H97.0591V388.257H86.2752V431.396H97.0591V442.18H248.054V431.396H269.626V420.612H291.197V399.04H312.769V377.469H334.341V345.113H345.125V280.401H334.341V312.757H323.557V345.113H301.985V301.973H291.201V345.113H280.417V366.685H269.634V377.469H258.85V388.253H248.066V399.036H194.138V388.253H172.566V377.469H204.922V366.685H226.494V355.901H248.066V345.117H258.85V323.545H269.634V269.618H258.85V312.757H248.066V323.541H237.282V334.325H226.498V345.109H204.926V355.893H129.427V345.109H118.643V301.969H129.427V280.397H150.999V269.614H183.354V280.397H204.926V301.969H194.142V323.541H140.215V345.113H194.142V334.329H204.926V323.545H215.71V312.761H226.494V269.622H215.71V248.05H301.993V237.266H323.565V226.482H334.349V204.91H312.777V215.694H301.993V226.478H248.066V204.906H237.282V183.334H248.066V172.55H269.638V183.334H291.209V172.55H280.425V161.767H269.642V97.0551H291.213V107.839H301.997V129.411H312.781V172.55H323.565V161.767H334.349V194.122H355.921V97.0551H345.137V75.4833H355.921V32.3437H345.137L345.133 32.3557ZM237.278 107.855V118.639H226.494V97.0671H237.278V107.851V107.855ZM248.062 75.4993H226.49V43.1436H215.706V32.3597H237.278V43.1436H248.062V64.7154H258.846V75.4993H248.062ZM183.35 399.06V420.632H161.779V431.416H150.995V409.844H172.566V399.06H183.35Z" fill="#D9D9D9"/>
</svg>
